<?xml version="1.0" encoding="UTF-8" standalone="no"?>
<svg
   version="1.0"
   width="900.000000pt"
   height="540.000000pt"
   viewBox="0 0 900.000000 540.000000"
   preserveAspectRatio="xMidYMid meet"
   id="svg7"
   sodipodi:docname="aidlink.svg"
   inkscape:version="1.3.2 (091e20e, 2023-11-25, custom)"
   xmlns:inkscape="http://www.inkscape.org/namespaces/inkscape"
   xmlns:sodipodi="http://sodipodi.sourceforge.net/DTD/sodipodi-0.dtd"
   xmlns="http://www.w3.org/2000/svg"
   xmlns:svg="http://www.w3.org/2000/svg">
  <defs
     id="defs7" />
  <sodipodi:namedview
     id="namedview7"
     pagecolor="#000000"
     bordercolor="#000000"
     borderopacity="0.25"
     inkscape:showpageshadow="2"
     inkscape:pageopacity="0.0"
     inkscape:pagecheckerboard="0"
     inkscape:deskcolor="#d1d1d1"
     inkscape:document-units="pt"
     inkscape:zoom="0.34666667"
     inkscape:cx="600"
     inkscape:cy="359.13462"
     inkscape:window-width="1440"
     inkscape:window-height="877"
     inkscape:window-x="1432"
     inkscape:window-y="-8"
     inkscape:window-maximized="1"
     inkscape:current-layer="svg7" />
  <g
     transform="translate(0.000000,540.000000) scale(0.100000,-0.100000)"
     fill="#184b00"
     stroke="none"
     id="g7">
    <path
       d="M3585 5065 c-253 -28 -466 -84 -689 -180 -156 -67 -256 -122 -366 -201 -338 -242 -576 -593 -661 -977 -16 -73 -14 -74 111 -117 240 -82 438 -172 569 -258 57 -38 228 -178 326 -267 55 -50 168 -125 240 -161 56 -27 69 -29 198 -32 97 -3 169 2 238 13 136 23 325 24 414 3 179 -42 245 -52 360 -52 144 -1 201 16 271 81 40 36 45 45 34 58 -7 8 -22 15 -34 15 -13 0 -42 6 -67 14 -24 8 -75 23 -112 35 -37 12 -90 32 -117 46 -27 14 -63 25 -80 25 -31 0 -141 -49 -171 -76 -18 -16 -35 -18 -43 -5 -17 27 43 76 140 114 57 23 193 45 299 50 67 3 66 22 -4 64 -73 44 -120 59 -221 72 -158 20 -275 -12 -485 -132 -209 -120 -374 -181 -475 -175 -47 3 -55 6 -55 23 0 18 9 21 75 27 41 5 97 15 125 24 57 18 308 137 345 164 45 32 146 79 214 100 126 39 333 26 446 -28 45 -22 155 -98 200 -138 124 -112 265 -220 334 -254 71 -36 85 -40 156 -40 129 0 138 13 58 87 -29 26 -136 129 -238 228 l-185 181 -205 101 c-213 106 -253 132 -243 158 7 19 28 13 92 -24 25 -15 73 -40 106 -55 124 -58 251 -124 285 -147 19 -13 105 -94 190 -179 85 -86 197 -193 248 -240 50 -46 92 -89 92 -94 0 -5 -10 -21 -22 -34 l-23 -24 30 -24 c17 -13 59 -39 95 -56 56 -28 75 -32 145 -32 62 0 92 5 133 23 63 28 67 50 15 82 -179 107 -329 225 -496 388 l-128 126 -117 47 c-235 94 -439 213 -585 341 l-79 68 -136 -8 c-76 -4 -306 -8 -512 -8 -521 1 -711 22 -827 92 -77 46 -188 131 -270 207 -62 58 -66 64 -52 83 29 41 250 208 319 240 8 4 35 19 60 33 60 35 266 121 365 153 123 40 204 58 400 93 141 25 598 31 762 9 314 -41 550 -96 793 -185 47 -17 96 -35 110 -39 14 -5 65 -27 113 -50 49 -22 90 -41 93 -41 17 0 246 -122 367 -195 318 -193 538 -372 790 -645 91 -99 337 -423 337 -445 0 -13 109 -184 114 -177 12 20 -77 235 -162 389 -116 213 -216 358 -351 513 -220 252 -435 441 -711 624 -450 299 -915 485 -1435 575 -229 40 -619 52 -850 26z"
       id="path1"
       style="fill:#ffffff;fill-opacity:1" />
    <path
       d="M3995 4435 c-77 -6 -156 -17 -175 -23 -19 -6 -57 -14 -85 -18 -36 -4 -45 -8 -33 -15 9 -5 49 -4 99 2 119 16 423 16 559 0 198 -22 531 -92 653 -137 23 -8 56 -19 72 -24 112 -32 340 -135 520 -234 557 -307 1036 -815 1255 -1331 19 -44 40 -89 47 -100 7 -11 13 -26 13 -35 0 -8 7 -28 15 -44 8 -15 15 -33 15 -38 0 -6 6 -24 14 -41 7 -18 19 -48 24 -67 l11 -35 -4 45 c-5 68 -21 137 -50 225 -124 372 -313 681 -597 976 -101 106 -275 257 -373 325 -194 135 -277 186 -423 258 -216 108 -337 154 -607 230 -198 56 -516 98 -723 95 -48 -1 -150 -7 -227 -14z"
       id="path2"
       style="fill:#ffffff;fill-opacity:1" />
    <path
       d="M5240 3252 c0 -18 145 -143 258 -222 62 -44 63 -44 147 -43 82 0 88 2 140 37 34 24 61 52 74 79 20 39 20 43 4 55 -10 7 -49 12 -97 12 -114 0 -349 40 -449 76 -42 16 -77 18 -77 6z"
       id="path3"
       style="fill:#ffffff;fill-opacity:1" />
    <path
       d="M2248 3024 c-12 -11 -10 -48 5 -96 8 -24 22 -70 31 -103 60 -211 222 -531 364 -718 115 -152 267 -314 425 -455 52 -46 251 -197 302 -229 327 -206 599 -326 935 -415 261 -68 667 -104 895 -79 175 19 249 31 259 41 7 7 -84 10 -275 10 -309 0 -390 7 -654 61 -303 62 -657 196 -913 346 -41 24 -76 43 -78 43 -10 0 -217 142 -301 206 -201 154 -446 397 -558 554 -11 15 -41 58 -68 95 -98 137 -207 336 -267 485 -12 30 -27 69 -34 85 -24 54 -44 109 -53 143 -4 19 -11 30 -15 26z"
       id="path4"
       style="fill:#ffffff;fill-opacity:1" />
    <path
       d="M3612 2611 c-28 -9 -62 -26 -73 -38 l-21 -21 23 -16 c13 -10 70 -47 126 -84 143 -94 249 -181 411 -335 88 -85 150 -137 168 -141 42 -10 164 -63 284 -124 124 -63 268 -159 365 -243 l70 -60 220 6 c121 3 284 8 363 11 178 7 587 -12 707 -32 50 -8 108 -23 130 -32 62 -25 209 -129 290 -204 22 -20 52 -46 68 -58 15 -12 27 -31 27 -43 0 -12 -12 -32 -27 -44 -360 -303 -776 -465 -1310 -512 -509 -45 -1142 74 -1651 310 -142 66 -307 153 -407 216 -11 7 -47 29 -80 50 -234 145 -501 373 -741 634 -78 85 -314 411 -314 434 0 2 -13 24 -30 48 -16 25 -30 49 -30 55 0 5 -7 15 -15 22 -48 40 26 -162 133 -360 133 -249 308 -482 523 -700 148 -149 313 -289 482 -405 215 -149 500 -304 727 -395 30 -12 66 -26 80 -32 140 -57 451 -145 630 -177 269 -49 690 -66 916 -37 324 42 553 110 809 237 368 184 691 521 818 854 48 128 70 195 83 255 17 81 12 86 -101 125 -107 36 -204 73 -237 91 -14 8 -31 14 -37 14 -22 0 -231 110 -304 159 -40 27 -128 96 -195 153 -201 170 -263 216 -347 258 -136 69 -199 72 -520 25 -130 -19 -248 -15 -385 13 -180 38 -245 47 -340 47 -127 -1 -217 -33 -280 -100 -31 -33 -22 -41 66 -65 38 -11 92 -25 119 -33 28 -8 85 -31 129 -51 l78 -37 47 18 c25 9 60 25 76 35 71 42 86 48 95 43 20 -12 9 -32 -32 -62 -91 -65 -229 -103 -373 -103 -47 0 -87 -5 -90 -10 -14 -22 100 -91 192 -117 82 -23 250 -23 328 1 51 16 210 93 240 116 22 17 233 120 285 139 30 11 91 27 134 35 71 15 82 15 103 1 42 -28 29 -45 -35 -45 -31 0 -89 -9 -127 -20 -74 -21 -270 -113 -377 -177 -123 -74 -191 -100 -297 -113 -95 -13 -236 0 -311 27 -69 25 -174 96 -285 192 -230 200 -321 253 -443 259 -56 3 -78 0 -98 -13 l-26 -17 88 -81 c49 -44 157 -148 239 -231 l150 -150 219 -111 c121 -60 224 -118 230 -127 8 -13 7 -21 -2 -30 -9 -9 -20 -7 -49 10 -21 13 -118 63 -215 112 -98 48 -192 99 -210 111 -18 12 -105 95 -194 183 -88 89 -197 193 -242 231 -84 73 -100 105 -65 130 15 11 16 15 3 31 -24 29 -111 79 -169 97 -66 21 -121 21 -189 -2z"
       id="path5"
       style="fill:#ffffff;fill-opacity:1" />
    <path
       d="M3511 2374 c-58 -21 -95 -49 -126 -96 -37 -56 -34 -66 28 -72 204 -20 271 -28 337 -42 69 -14 207 -50 238 -61 6 -3 12 0 12 6 0 27 -225 216 -304 256 -58 29 -119 32 -185 9z"
       id="path6"
       style="fill:#ffffff;fill-opacity:1" />
    <path
       d="M5533 993 c9 -2 25 -2 35 0 9 3 1 5 -18 5 -19 0 -27 -2 -17 -5z"
       id="path7"
       style="fill:#ffffff;fill-opacity:1" />
  </g>
</svg>
